<svg viewBox="0 0 200 200">
  <path d="M63.5,59.9c-2.1,1.9-5.4,1.9-7.5,0L31.7,37.3v137.5c0,2.9-2.6,5.2-5.8,5.2h-0.1c-3.2,0-5.8-2.4-5.8-5.2V25.4
	c0-1.6,0.8-3,2.1-4l0,0c1-1,2.4-1.4,3.8-1.4c1.2,0,2.5,0.4,3.4,1.1c0.5,0.3,1,0.7,1.3,1.2l32.9,30.6C65.5,54.8,65.5,58,63.5,59.9z" />
  <path d="M180,175v-2c0-2.8-2.3-5-5-5H50c-2.8,0-5,2.3-5,5v2c0,2.8,2.2,5,5,5h125C177.8,180,180,177.8,180,175z"/>
  <path d="M150,145v-2c0-2.8-2.3-5-5-5H50c-2.8,0-5,2.3-5,5v2c0,2.8,2.2,5,5,5h95C147.8,150,150,147.8,150,145z"/>
  <path d="M120,115v-2c0-2.7-2.3-5-5-5H50c-2.8,0-5,2.3-5,5v2c0,2.7,2.2,5,5,5h65C117.8,120,120,117.8,120,115z"/>
  <path d="M90,85v-2c0-2.7-2.3-5-5-5H50c-2.8,0-5,2.3-5,5v2c0,2.7,2.2,5,5,5h35C87.8,90,90,87.8,90,85z"/>
</svg>
