<svg viewBox="0 0 200 200">
  <path
    d="M86.342 5A74.757 74.757 0 0071.49 29.225a250.38 250.38 0 0119.4 30.627c3.202-.168 6.487.085 9.69.843C112.881 42.41 100.16 8.876 86.342 5zM71.49 29.225a250.38 250.38 0 00-.148-.211l-.084.757a74.757 74.757 0 01.232-.546zm49.313-12.092c-5.813 1.01-11.122 4.045-14.998 8.51 8.005 25.53-2.276 35.81-2.276 35.81s2.443.507 6.573 1.35c27.72-22.835 10.7-45.67 10.7-45.67zm-68.084 3.771a7.509 7.509 0 00-.672.022c-.337 8.426.758 16.766 3.285 24.771 6.32 4.803 11.882 10.533 16.432 17.106a32.405 32.405 0 0115.42-2.53s-20.25-39.188-34.465-39.369zm79.799 13.698c-2.88.035-4.301 1.742-4.301 1.742 3.034 9.1-11.29 23.929-15.672 27.468 1.6.59 8.764 3.877 8.764 3.877 19.548-12.64 15.924-27.723 14.576-32.441-1.285-.484-2.408-.658-3.367-.646zm7.496 5.365c3.54 8.174-8.762 26.626-15.25 28.816 6.066 2.19 8.676 6.911 13.9 11.881 12.976-7.077 0-19.21 0-19.21 11.797 3.033 13.735-11.882 5.225-11.292 4.129-9.606-3.875-10.195-3.875-10.195zM45.389 43.49a5.604 5.604 0 00-.84.016c-1.348 4.887-1.011 10.196 1.096 14.83 7.499 5.477 1.6 17.694 4.38 13.228a50.55 50.55 0 0118.705-7.668S54.26 43.97 45.39 43.49zm-23.452 6.012c-2.835-.077-3.012 1.347 2.557 4.451 17.61 9.69-11.71 20.393 4.383 39.604 0 0-1.518-2.024 15.418-17.022 9.508-16.836-15.11-26.837-22.358-27.033z" />
  <path
    d="M84.908 63.813c-20.39 0-60.414 23.172-60.414 51.82 0 25.346 31.119 49.282 52.592 51.902v-21.549c-14.303-3.137-25.316-11.335-24.955-17.04 25.98-6.957 28.49-15.258 38.853-15.897a15.28 15.28 0 011.846-.123h10.141c.59 0 1.079-.302 1.343-.83l.979-1.957a15.788 15.788 0 0114.096-8.71h25.761c-4.59-25.177-31.796-37.617-60.242-37.617zM125.76 79.89c3.237.018 6.727 2.746 8.44 6.921 2.105 5.14.927 10.62-2.78 12.135-3.707 1.601-8.51-1.346-10.617-6.486-2.107-5.14-.928-10.618 2.779-12.135a5.37 5.37 0 012.178-.435zm-60.596 6.964c2.276-.102 4.44.509 6.178 1.899 4.634 3.707 4.55 11.542-.168 17.61-4.72 6.065-12.385 7.918-17.02 4.21-4.718-3.623-4.634-11.457.168-17.61 2.95-3.79 7.05-5.937 10.842-6.109zm12.01 39.729c-9.692 1.55-17.447 4.373-18.89 4.299 6.184 5.64 12.583 9.075 18.802 10.937v-13.15c0-.545.031-1.083.088-1.615v-.471z" />
  <path
    d="M119.379 111.43a5.74 5.74 0 00-5.14 3.177l-.983 1.967a11.505 11.505 0 01-10.281 6.352H92.834a5.75 5.75 0 00-5.748 5.748v45.984a5.75 5.75 0 005.746 5.748h80.475a5.75 5.75 0 005.748-5.748v-45.984a5.75 5.75 0 00-5.748-5.748h-10.139c-4.355 0-8.337-2.46-10.283-6.358l-.985-1.964a5.745 5.745 0 00-5.136-3.174zm13.691 17.244c12.697 0 22.993 10.295 22.993 22.992 0 12.698-10.296 22.992-22.993 22.992-12.698 0-22.992-10.294-22.992-22.992 0-12.697 10.294-22.992 22.992-22.992zm0 11.496c-6.349 0-11.496 5.147-11.496 11.496 0 6.35 5.147 11.496 11.496 11.496 6.35 0 11.496-5.147 11.496-11.496 0-6.35-5.147-11.496-11.496-11.496z" />
</svg>
