<svg viewBox="0 0 200 200">
  <path
    d="M108.27 98.59a6.808 6.808 0 00-6.096 3.77l-1.166 2.331a13.647 13.647 0 01-12.197 7.534H76.78a6.82 6.82 0 00-6.816 6.818v54.547a6.82 6.82 0 006.816 6.816h95.455a6.82 6.82 0 006.819-6.816v-54.547a6.82 6.82 0 00-6.819-6.818h-12.025a13.634 13.634 0 01-12.2-7.54l-1.165-2.333a6.814 6.814 0 00-6.094-3.762zm16.24 20.453c15.06 0 27.271 12.212 27.271 27.273s-12.21 27.274-27.271 27.274c-15.062 0-27.274-12.213-27.274-27.274 0-15.06 12.212-27.273 27.274-27.273zm0 13.637a13.636 13.636 0 00-13.637 13.636 13.636 13.636 0 0013.637 13.635 13.636 13.636 0 0013.636-13.635 13.636 13.636 0 00-13.636-13.636z" />
  <path
    d="M94.715 20.004c-16.042.073-33.205 9.77-37.352 26.057C44.756 47.413 32.358 50.214 20 52.98l25.867 113.027 11.098.822V119.04c0-1.223.132-2.417.353-3.584v-.152c.012-.015.02-.03.032-.045.365-1.82.992-3.554 1.83-5.168.403-4.927-1.419-10.781.15-14.363 11.053-2.625 22.462-3.1 33.797-3.032 3.717-4.416 9.234-7.106 15.143-7.105h32.482c7.13 0 13.701 3.904 17.2 10.064 3.239-14.188 6.576-28.36 9.206-42.674-12.896-3.99-26.226-6.748-39.662-8.076-1.76-13.99-14.853-24.14-28.531-24.752a42.286 42.286 0 00-4.25-.148zm-1.928 14.523l4.352 8.522 9.468 1.23c-2.099 2.436-5.172 4.572-6.658 7.196l1.678 9.002-8.51-4.329c-2.794 1.53-5.588 3.058-8.383 4.586l1.471-9.459-6.935-6.58 9.425-1.52 4.092-8.648z" />
</svg>
