<svg viewBox="0 0 200 200" xmlns="http://www.w3.org/2000/svg">
  <path
    d="M108.27 98.59a6.807 6.807 0 00-6.096 3.77l-1.166 2.331a13.647 13.647 0 01-12.197 7.534H76.78a6.819 6.819 0 00-6.816 6.818v54.547a6.817 6.817 0 006.816 6.816h95.455a6.819 6.819 0 006.819-6.816v-54.547a6.82 6.82 0 00-6.819-6.818h-12.025c-5.166 0-9.89-2.918-12.2-7.54l-1.165-2.333a6.81 6.81 0 00-6.094-3.762zm16.24 20.453c15.06 0 27.271 12.212 27.271 27.273s-12.21 27.274-27.271 27.274c-15.062 0-27.274-12.213-27.274-27.274 0-15.06 12.212-27.273 27.274-27.273zm0 13.637a13.636 13.636 0 00-13.637 13.636 13.636 13.636 0 0013.637 13.635 13.636 13.636 0 0013.636-13.635 13.636 13.636 0 00-13.636-13.636zM158.016 25.018a17.244 17.244 0 00-1.616.002L54 29.719c11.7.1 25.2 10.4 24.8 29.3l101.2-6c0-21.28-13.536-27.622-21.984-28.001zM39.545 31.166c-9.895.01-17.077 4.826-18.346 13.254l49 13.799c-.2-15.5-7.8-25-27.5-26.9a32.796 32.796 0 00-3.154-.153zM20 53.42v70.898l34.965 14.772v-20.051c.003-9.135 5.905-17.113 14.035-20.31v-31.41l-49-13.9zm160 9l-100.8 5.6v29.205h8.77l.78-1.559c3.676-7.372 11.284-12.077 19.52-12.076h32.482c8.221 0 15.823 4.69 19.506 12.045l.004.006.789 1.584h11.189c2.724 0 5.336.545 7.76 1.496V62.42z" />
</svg>
