<svg viewBox="0 0 200 200">
  <path
    d="M28.876 93.556c-16.093-19.211 13.229-29.912-4.381-39.602-19.801-11.038 33.029-.842 19.8 22.582-16.936 14.998-15.419 17.02-15.419 17.02z" />
  <path
    d="M45.644 58.336c-2.107-4.634-2.444-9.943-1.096-14.83 8.763-.842 24.182 20.39 24.182 20.39a50.55 50.55 0 00-18.705 7.668c-2.78 4.466 3.118-7.751-4.381-13.228zM55.333 45.697c-2.527-8.005-3.623-16.346-3.286-24.772 14.24-1.095 35.136 39.349 35.136 39.349a32.405 32.405 0 00-15.42 2.528c-4.55-6.573-10.11-12.302-16.43-17.105zM71.258 29.772A74.757 74.757 0 0186.341 5c13.818 3.876 26.541 37.41 14.24 55.695-3.203-.758-6.489-1.011-9.69-.843a250.38 250.38 0 00-19.549-30.838" />
  <path
    d="M105.804 25.643c3.876-4.465 9.185-7.499 14.998-8.51 0 0 17.02 22.834-10.7 45.669-4.13-.843-6.573-1.349-6.573-1.349s10.28-10.28 2.275-35.81z" />
  <path
    d="M128.217 36.344s2.528-3.033 7.668-1.095c1.348 4.718 4.971 19.8-14.577 32.44 0 0-7.162-3.287-8.763-3.876 4.382-3.54 18.706-18.369 15.672-27.469z" />
  <path
    d="M140.013 39.967s8.005.59 3.876 10.196c8.51-.59 6.573 14.324-5.224 11.29 0 0 12.976 12.134 0 19.211-5.224-4.97-7.836-9.69-13.902-11.88 6.488-2.19 18.79-20.643 15.25-28.817z" />
  <path
    d="M84.908 63.813c-20.39 0-60.414 23.172-60.414 51.82 0 25.38 31.204 49.35 52.68 51.916v-21.541c-14.346-3.123-25.405-11.345-25.043-17.063 30.839-8.257 28.563-18.453 45.668-15.42 2.96.525 5.69.637 8.244.528a13.985 13.985 0 002.943-3.805l1.194-2.389a6.977 6.977 0 016.248-3.863h29.107c-3.156-26.9-31.23-40.183-60.627-40.183zM125.76 79.89c3.237.018 6.728 2.747 8.44 6.923 2.106 5.14.927 10.619-2.78 12.135-3.707 1.601-8.51-1.348-10.617-6.488-2.107-5.14-.928-10.616 2.779-12.133.695-.3 1.43-.442 2.178-.437zm-60.596 6.966c2.276-.102 4.44.507 6.178 1.897 4.634 3.707 4.55 11.543-.168 17.61-4.719 6.066-12.385 7.92-17.02 4.212-4.718-3.623-4.634-11.458.168-17.61 2.95-3.79 7.05-5.937 10.842-6.109z" />
  <path
    d="M77.174 126.584c-9.692 1.55-17.446 4.373-18.89 4.299 6.214 5.667 12.643 9.111 18.89 10.967zM173.307 122.926h-10.14c-4.355 0-8.337-2.46-10.283-6.357l-.983-1.966a5.745 5.745 0 00-5.138-3.173h-27.384a5.74 5.74 0 00-5.14 3.178l-.983 1.966a11.505 11.505 0 01-10.282 6.352h-10.14a5.75 5.75 0 00-5.748 5.748v45.985a5.75 5.75 0 005.747 5.748h80.474a5.75 5.75 0 005.748-5.748v-45.985a5.75 5.75 0 00-5.748-5.748zm-40.236 51.733c-12.698 0-22.993-10.295-22.993-22.993 0-12.697 10.295-22.992 22.993-22.992 12.697 0 22.991 10.295 22.991 22.992 0 12.698-10.294 22.993-22.991 22.993z" />
  <circle cx="133.071" cy="151.666" r="11.496" />
</svg>
