<svg viewBox="0 0 200 200" xmlns="http://www.w3.org/2000/svg">
  <path
    d="M100.479 13.693c-48.5.001-87.817 39.319-87.817 87.819s39.317 87.817 87.817 87.818c48.5 0 87.818-39.318 87.818-87.818 0-48.501-39.318-87.819-87.818-87.819zm-5.057 21.563c2.472.001 4.913.184 7.332.46L86.488 71.472l19.578 1.33-6.712 13.568c-8.871-6.06-17.847-11.47-30.165 3.92L38.047 70.58a64.628 64.628 0 0157.375-35.324zm24.271 4.781c14.929 6.065 27.373 17.587 34.377 32.76L121.273 92.38l-9.029.047c-2.31 5.575 2.503 11.008 6.606 16.584-5.389 9.003-13.798 6.852-20.94 2.484l1.352-2.35c7.015 4.837 12.06 4.505 15.357-.42-3.623-4.923-7.384-9.845-6.625-14.769l17.08-29.709-23.38.19 18-24.4zM88.39 99.223c1.064 1.162 2.052 2.126 3.056 3.132l-1.54 3.112c-.694-.61-1.414-1.239-1.99-1.776l-20.245 8.647-4.563 8.744c-11.638 19.189 5.105 9.835 7.985 5.322-6.668 11.234-4.7 16.526 3.373 10.272l-9.875 19.96c-19.743-10.779-33.266-31.556-33.695-55.597l20.238 15.102c-.203 6.183.753 10.997 6.082 10.644l8.933-17.678 22.24-9.884zm71.66.642v.02c0 35.692-28.935 64.626-64.627 64.627a64.422 64.422 0 01-25.067-5.086l8.452-14.7c1.776.704 5.217-1.14 10.53-6.345-4.244 14.77-.125 12.472 8.745 7.982 9.495-8.922 30.8-29.576 61.967-46.498z" />
</svg>
