<svg xmlns="http://www.w3.org/2000/svg" viewBox="0 0 200 200">
  <path
    d="M104.736 10.645c-65.139 50.942-107.487 162.784 0 181.148 109.265-14.256 66.09-130.206 0-181.148zm4.668 77.53c10.254.118 19.585 4.66 22.319 15.298 1.922 5.93-37.139 17.443-54.985 13.26-4.072-16.657 15.577-28.753 32.666-28.557zm34.948 15.561c6.094-.007 11.731 1.062 13.283 4.239 12.116 30.51-105.574 51.065-103.889 22.748.404-6.796 13.899-11.638 21.045-13.625l1.824 9.732c6.844 1.903 38.554 3.104 59.489-12.773 0 0-2.07-6.57-2.434-9.368 3.203-.557 7.025-.948 10.682-.953z" />
</svg>
