<svg xmlns="http://www.w3.org/2000/svg" viewBox="0 0 200 200">
  <path
    d="M104.736 10.645c-65.139 50.941-107.486 162.784 0 181.148 109.265-14.256 66.09-130.207 0-181.148zm39.643 66.283c.536.033 1.073.166 1.475.367.133.134.669 1.473.535 2.142-.268 1.474-.937 2.813-1.473 4.153-1.205 2.813-2.277 5.893-3.885 8.572-1.071 1.875-2.679 3.483-4.152 5.09-3.617 4.018-7.367 7.903-11.117 11.787-2.813 2.947-5.626 5.76-8.305 8.572-3.75 3.885-7.368 7.77-11.252 11.52-1.607 1.473-1.34 2.68 0 4.02 1.34 1.339 2.413 2.81 4.69 3.212 2.544.402 2.81 2.814.4 4.957-1.473 1.34-3.215 2.412-5.09 3.215-.938.402-2.544.133-3.615-.537-2.411-1.34-4.555-2.945-7.367-4.82-2.01 1.071-5.76 5.357-8.305 7.902-2.947 3.884-6.028 7.5-8.707 11.385-2.411 3.482-4.15 2.678-6.428 1.205-.803-.536-1.607-1.07-2.277-1.74-3.215-2.813-2.813-6.028.937-8.037 1.608-.804 2.946-2.145 4.286-3.35a73.222 73.222 0 006.027-6.83c.67-.804 4.422-6.43 6.03-8.305-1.474-1.607-3.082-3.482-4.823-5.357-1.206-1.34-1.743-2.545-.537-4.153.937-1.473 1.609-3.08 2.144-4.687.67-1.875 2.142-2.68 3.883-2.412.804.134 1.206 1.742 2.01 2.68 1.741 1.875 3.483 3.616 5.492 5.76 2.813-3.081 5.09-5.627 7.5-8.305l15.27-17.28c2.678-3.08 5.76-5.76 8.037-8.974 2.813-4.286 7.5-5.625 11.384-8.17 1.876-1.206 3.751-2.41 5.76-3.348.402-.2.937-.268 1.473-.234z" />
</svg>
