<svg viewBox="0 0 200 200">
  <path d="M63.5,140.1c-2.1-1.9-5.4-1.9-7.5,0l-24.2,22.6V25.2c0-2.9-2.6-5.2-5.8-5.2h-0.1c-3.2,0-5.8,2.4-5.8,5.2v149.3
	c0,1.6,0.8,3,2.1,4l0,0c1,1,2.4,1.4,3.8,1.4c1.2,0,2.5-0.4,3.4-1.1c0.5-0.3,1-0.7,1.3-1.2l32.9-30.6C65.5,145.2,65.5,142,63.5,140.1
	z"/>
  <path d="M180,25v2c0,2.7-2.3,5-5,5H50c-2.8,0-5-2.2-5-5v-2c0-2.7,2.2-5,5-5h125C177.8,20,180,22.2,180,25z"/>
  <path d="M150,55v2c0,2.8-2.3,5-5,5H50c-2.8,0-5-2.2-5-5v-2c0-2.8,2.2-5,5-5h95C147.8,50,150,52.2,150,55z"/>
  <path d="M120,85v2c0,2.7-2.3,5-5,5H50c-2.8,0-5-2.3-5-5v-2c0-2.7,2.2-5,5-5h65C117.8,80,120,82.3,120,85z"/>
  <path d="M90,115v2c0,2.7-2.3,5-5,5H50c-2.8,0-5-2.3-5-5v-2c0-2.7,2.2-5,5-5h35C87.8,110,90,112.3,90,115z"/>
</svg>
