<svg xmlns="http://www.w3.org/2000/svg" viewBox="0 0 200 200">
  <path
    d="M137.233 20c-3.962.056-7.263 3.51-7.931 5.422-12.094.101-21.117 1.787-27.866 4.485a28.244 28.244 0 014.04 5.382c2.018 1.825 7.706 5.223 13.031 11.45 4.152 4.853 7.418 11.946 7.996 20.71 13.181-.097 26.126-1.734 38.803-4.997 3.29-22.052-11.878-27.383-18.549-34.09-2.958-6.392-6.442-8.404-9.524-8.361zM89.046 33.079c-3.963.055-7.264 3.51-7.932 5.421-43.863.368-47.518 21.502-47.61 36.662 28.877 6.983 56.84 7.26 83.615.368 3.29-22.052-11.879-27.383-18.55-34.09-2.958-6.392-6.441-8.404-9.523-8.361zm77.997 41.225c-13.15 2.68-26.668 3.959-40.552 3.88l.471 6.048c18.672-.073 36.72-2.208 40.538-6.986zm-.09 9.282c-4.753 2.205-9.14 3.582-15.079 3.582 25.313 21.593-5.3 31.885-5.3 31.885-.823 22.42-2.102 21.132-3.747 28.299 11.971-2.94 24.034-23.063 24.034-23.063s-.549-21.959.091-40.703zM33.047 86.462c-.548 2.756-.548 3.584-.548 3.584 4.386 8.729 78.588 10.567 86.812.276l-.457-2.941c-27.048 5.513-55.651 5.145-85.807-.92zm108.226 3.83a5.117 5.145 0 00-5.119 5.145 5.117 5.145 0 005.12 5.147 5.117 5.145 0 005.116-5.147 5.117 5.145 0 00-5.117-5.145zM34.237 96.386c.64 18.744.09 40.705.09 40.705s12.064 20.122 24.035 23.063c-1.645-7.167-2.926-5.882-3.748-28.301 0 0-30.612-10.29-5.3-31.883-5.848 0-10.234-1.379-15.077-3.584zm84.527.276c-4.751 2.206-9.138 3.582-15.078 3.582 25.313 21.593-5.3 31.885-5.3 31.885-.823 22.42-2.102 21.132-3.747 28.3 11.971-2.941 24.034-23.063 24.034-23.063s-.548-21.96.091-40.704zm-61.409 6.247a5.117 5.145 0 00-5.117 5.145 5.117 5.145 0 005.117 5.147 5.117 5.145 0 005.119-5.146 5.117 5.145 0 00-5.119-5.146zm35.732.46a5.117 5.145 0 00-5.12 5.145 5.117 5.145 0 005.12 5.147 5.117 5.145 0 005.117-5.147 5.117 5.145 0 00-5.117-5.145zm34.676.362c-.325 16.532.045 33.403.045 33.403l.068 2.68-1.376 2.295s-3.338 5.59-8.358 11.597c-1.311 1.567-2.728 3.208-4.264 4.827 2.357 5.066 5.511 8.39 9.759 8.39 15.992 0 19.007-41.53 17.544-58.07-5.338-2.753-9.516-4.457-13.418-5.122zm-51.857 12.755c-5.026 0-10.051 1.815-17.087 5.444 0 11.21.639 58.07 16.63 58.07 15.992 0 19.007-41.53 17.545-58.07-7.037-3.629-12.062-5.444-17.088-5.444z" />
</svg>
