<svg viewBox="0 0 200 200">
  <path
    d="M137.232 20c-3.962.056-7.261 3.51-7.93 5.422-12.093.1-21.117 1.786-27.866 4.484a28.244 28.244 0 014.04 5.383c2.019 1.825 7.707 5.222 13.032 11.45 4.152 4.852 7.418 11.946 7.996 20.71 13.18-.097 26.126-1.735 38.803-4.998 3.29-22.052-11.878-27.383-18.55-34.09-2.957-6.392-6.443-8.402-9.525-8.359V20zM89.047 33.078c-3.963.055-7.266 3.511-7.934 5.422-3.707.031-7.104.222-10.26.533L109.16 77.34c2.663-.54 5.319-1.131 7.96-1.81 3.29-22.053-11.88-27.384-18.552-34.09-2.958-6.393-6.44-8.405-9.521-8.362zM34.205 66.025c-.53 3.14-.684 6.247-.701 9.137a201.698 201.698 0 0012.42 2.582L34.205 66.025zm132.838 8.28c-13.15 2.68-26.669 3.958-40.553 3.879l.473 6.048c18.672-.073 36.719-2.208 40.537-6.986l-.457-2.941zm-.092 9.28c-4.752 2.205-9.14 3.583-15.078 3.583 20.389 17.392 4.659 27.332-2.297 30.588l12.928 12.928c2.69-3.624 4.357-6.395 4.357-6.395s-.55-21.96.09-40.703zM33.047 86.462v.002c-.548 2.756-.549 3.584-.549 3.584 1.851 3.684 16.17 6.12 32.684 6.955l-6.768-6.768a249.24 249.24 0 01-25.367-3.773zm108.226 3.832a5.117 5.145 0 00-5.119 5.144 5.117 5.145 0 005.12 5.147 5.117 5.145 0 005.117-5.147 5.117 5.145 0 00-5.118-5.144zM34.236 96.387c.64 18.744.09 40.705.09 40.705s12.064 20.121 24.035 23.062c-1.645-7.167-2.926-5.882-3.748-28.3 0 0-30.61-10.29-5.299-31.883-5.848 0-10.235-1.38-15.078-3.584zm23.12 6.521a5.117 5.145 0 00-5.118 5.147 5.117 5.145 0 005.117 5.146 5.117 5.145 0 005.12-5.146 5.117 5.145 0 00-5.12-5.147zm82.826 5.453l1.035 1.035c-.014-.17-.02-.376-.035-.542-.352-.182-.659-.32-1-.493zm-64.276 8.125c-5.026 0-10.052 1.815-17.088 5.444 0 11.21.64 58.07 16.631 58.07 15.08 0 18.615-36.906 17.744-54.986l-5.703-5.703c-4.353-1.872-7.975-2.825-11.584-2.825zM99.77 131.59c-.841.348-1.383.539-1.383.539-.823 22.42-2.103 21.133-3.748 28.3 7.02-1.724 14.002-9.317 18.634-15.335L99.77 131.59zm20.021 20.021c-.553.703-1.044 1.37-1.648 2.094-1.311 1.567-2.728 3.21-4.264 4.828 2.357 5.066 5.51 8.39 9.758 8.39 2.963 0 5.48-1.432 7.605-3.86l-11.451-11.452z" />
  <path d="M39.824 20L20 39.824 160.176 180 180 160.176z" />
</svg>
