<svg viewBox="0 0 200 200">
  <path
    d="M54.4 89c.7 20.4.1 44.3.1 44.3s13.2 21.9 26.3 25.1c-1.8-7.8-3.2-6.4-4.1-30.8 0 0-33.5-11.2-5.8-34.7-6.4 0-11.2-1.5-16.5-3.9zM146.9 89.3c-.7 20.4-.1 44.3-.1 44.3s-13.2 21.9-26.3 25.1c1.8-7.8 3.2-6.4 4.1-30.8 0 0 33.5-11.2 5.8-34.7 6.5 0 11.3-1.5 16.5-3.9zM81.3 116.8c0 12.2.7 63.2 18.2 63.2s20.8-45.2 19.2-63.2c-15.4-7.9-22-7.9-37.4 0z" />
  <circle cx="79.7" cy="101.7" r="5.6" />
  <path
    d="M145.1 66.3c3.6-24-13-29.8-20.3-37.1-7.4-15.9-17.8-6.9-19.1-3.2-48 .4-52 23.4-52.1 39.9 31.6 7.6 62.2 7.9 91.5.4zM53.1 78.2c-.6 3-.6 3.9-.6 3.9 4.8 9.5 86 11.5 95 .3l-.5-3.2c-29.6 6-60.9 5.6-93.9-1z" />
  <circle cx="118.8" cy="102.2" r="5.6" />
</svg>
