<svg viewBox="0 0 200 200">
  <path
    d="m 168.18182,106.81818 h -12.02727 c -5.16819,0 -9.88637,-2.91818 -12.19773,-7.540908 l -1.16591,-2.331818 c -1.15227,-2.304545 -3.51136,-3.763636 -6.09546,-3.763636 h -32.48181 c -2.58409,0 -4.943186,1.459091 -6.095458,3.770454 l -1.16591,2.331819 C 94.640909,103.9 89.915909,106.81818 84.754545,106.81818 H 72.727272 c -3.763636,0 -6.818181,3.05455 -6.818181,6.81818 v 54.54546 c 0,3.76363 3.054545,6.81818 6.818181,6.81818 H 168.18182 C 171.94545,175 175,171.94545 175,168.18182 v -54.54546 c 0,-3.76363 -3.05455,-6.81818 -6.81818,-6.81818 z m -47.72727,61.36364 c -15.06137,0 -27.272732,-12.21137 -27.272732,-27.27273 0,-15.06136 12.211362,-27.27273 27.272732,-27.27273 15.06136,0 27.27272,12.21137 27.27272,27.27273 0,15.06136 -12.21136,27.27273 -27.27272,27.27273 z" />
  <circle cx="120.45454" cy="140.90909" r="13.636364" />
  <path
    d="m 38.636364,127.27273 v -13.63637 c 0,-3.76363 -3.054546,-6.81818 -6.818182,-6.81818 v 0 C 28.054545,106.81818 25,109.87273 25,113.63636 v 13.63637 c 0,3.76363 3.054545,6.81818 6.818182,6.81818 v 0 c 3.763636,0 6.818182,-3.05455 6.818182,-6.81818 z" />
  <path
    d="m 65.909091,31.818182 v 0 c 0,3.770454 3.054545,6.818182 6.818181,6.818182 h 13.636364 c 3.763636,0 6.818182,-3.054546 6.818182,-6.818182 v 0 C 93.181818,28.054545 90.127272,25 86.363636,25 H 72.727272 c -3.763636,0 -6.818181,3.054545 -6.818181,6.818182 z" />
  <path
    d="m 31.818182,93.181818 v 0 c 3.770454,0 6.818182,-3.054546 6.818182,-6.818182 V 72.727272 c 0,-3.763636 -3.054546,-6.818181 -6.818182,-6.818181 v 0 C 28.054545,65.909091 25,68.963636 25,72.727272 v 13.636364 c 0,3.763636 3.054545,6.818182 6.818182,6.818182 z" />
  <path
    d="m 154.54545,38.636364 h 6.81819 v 6.818181 c 0,3.763637 3.05454,6.818182 6.81818,6.818182 v 0 c 3.76363,0 6.81818,-3.054545 6.81818,-6.818182 V 38.636364 C 175,31.102273 168.89773,25 161.36364,25 h -6.81819 c -3.76363,0 -6.81818,3.054545 -6.81818,6.818182 v 0 c 0,3.763636 3.05455,6.818182 6.81818,6.818182 z" />
  <path
    d="m 106.81818,31.818182 v 0 c 0,3.763636 3.05455,6.818182 6.81818,6.818182 h 13.63637 c 3.76363,0 6.81818,-3.054546 6.81818,-6.818182 v 0 C 134.09091,28.054545 131.03636,25 127.27273,25 h -13.63637 c -3.76363,0 -6.81818,3.054545 -6.81818,6.818182 z" />
  <path
    d="m 45.454545,161.36364 h -6.818181 v -6.81819 c 0,-3.76363 -3.054546,-6.81818 -6.818182,-6.81818 v 0 C 28.054545,147.72727 25,150.78182 25,154.54545 v 6.81819 C 25,168.89773 31.102273,175 38.636364,175 h 6.818181 c 3.763637,0 6.818182,-3.05455 6.818182,-6.81818 v 0 c 0,-3.76364 -3.054545,-6.81818 -6.818182,-6.81818 z" />
  <path
    d="m 38.636364,45.454545 v -6.818181 h 6.818181 c 3.763637,0 6.818182,-3.054546 6.818182,-6.818182 v 0 C 52.272727,28.054545 49.218182,25 45.454545,25 H 38.636364 C 31.102273,25 25,31.102273 25,38.636364 v 6.818181 c 0,3.763637 3.054545,6.818182 6.818182,6.818182 v 0 c 3.763636,0 6.818182,-3.054545 6.818182,-6.818182 z" />
  <path
    d="m 161.36364,72.727272 v 13.643182 c 0,3.763637 3.05454,6.818182 6.81818,6.818182 v 0 c 3.76363,0 6.81818,-3.054545 6.81818,-6.818182 V 72.727272 c 0,-3.763636 -3.05455,-6.818181 -6.81818,-6.818181 v 0 c -3.76364,0 -6.81818,3.054545 -6.81818,6.818181 z" />
</svg>
