<svg xmlns="http://www.w3.org/2000/svg" viewBox="0 0 200 200">
  <path d="M33.9,108.5c-19.1-22.8,15.7-35.5-5.2-47c-23.5-13.1,39.2-1,23.5,26.8C32.1,106.1,33.9,108.5,33.9,108.5z" />
  <path d="M53.8,66.7c-2.5-5.5-2.9-11.8-1.3-17.6c10.4-1,28.7,24.2,28.7,24.2c-7.9,1.5-15.5,4.6-22.2,9.1
	C55.7,87.7,62.7,73.2,53.8,66.7z" />
  <path
    d="M65.3,51.7c-3-9.5-4.3-19.4-3.9-29.4C78.3,21,103.1,69,103.1,69c-6.2-0.5-12.5,0.5-18.3,3C79.4,64.2,72.8,57.4,65.3,51.7z" />
  <path
    d="M84.2,32.8c4-10.9,10.1-20.9,17.9-29.4C118.5,8,133.6,47.8,119,69.5c-3.8-0.9-7.7-1.2-11.5-1c-6.8-12.7-14.6-25-23.2-36.6" />
  <path
    d="M125.2,27.9c4.6-5.3,10.9-8.9,17.8-10.1c0,0,20.2,27.1-12.7,54.2c-4.9-1-7.8-1.6-7.8-1.6S134.7,58.2,125.2,27.9z" />
  <path
    d="M151.8,40.6c0,0,3-3.6,9.1-1.3c1.6,5.6,5.9,23.5-17.3,38.5c0,0-8.5-3.9-10.4-4.6C138.4,69,155.4,51.4,151.8,40.6z" />
  <path d="M165.8,44.9c0,0,9.5,0.7,4.6,12.1c10.1-0.7,7.8,17-6.2,13.4c0,0,15.4,14.4,0,22.8c-6.2-5.9-9.3-11.5-16.5-14.1
	C155.4,76.5,170,54.6,165.8,44.9z" />
  <path d="M100.4,73.2c-24.2,0-71.7,27.5-71.7,61.5s47.2,65.9,71.7,61.5c33.6-3.8,67-38.4,71.8-61.5C177.6,93.5,140,73.2,100.4,73.2z
	 M64.1,107.8c5.6-7.2,14.7-9.4,20.2-5s5.4,13.7-0.2,20.9c-5.6,7.2-14.7,9.4-20.2,5C58.3,124.4,58.4,115.1,64.1,107.8z M61.5,150.5
	c36.6-9.8,33.9-21.9,54.2-18.3s32-8.5,41.5,0C132.9,198.3,60.5,166.3,61.5,150.5L61.5,150.5z M155.6,114.9
	c-4.4,1.9-10.1-1.6-12.6-7.7s-1.1-12.6,3.3-14.4c4.4-1.9,10.1,1.6,12.6,7.7S160,113.1,155.6,114.9z" />
  <path d="M68.8,152.8c3.9,0.2,46.5-17.4,66.9,5.5C124.2,167.4,94.9,176.6,68.8,152.8z" />
</svg>
