<svg viewBox="0 0 200 200">
  <path d="M55 124.8l1.3 29.7 7 7.3 12.4-2.9L87.8 129l-3.5-14-13-2.5z" />
  <path d="M47.3 135.1l-12.1-31.5L57 90.9l12.6 7.4 1.1 6-24 16.6zm116.5-45.8l-28.5 15.2-15 37 5.5 6 14 .5 26.5-25.5z" />
  <path
    d="M160.3 139.3L144 154h-20.2l-14-13.2-15.3 15.5 16.8 21.5h9.7l14.9-11.8.4.8 13.2 8 8.8-7.5v-9.8l10-9.5zm-71.5 19h-4.5l-3.5 6.2-21 5.4L49 158.5l-.5-12-9.2-12-11 13.5 15.2 13 6.3 11.5h12.5l-.2-.1 13.2 7.6h15l8-10zM110.6 20l26.8 42.3v31l-8.2 5.7-13.5 34.5h-13.6l-12.2 16.6-3.1-3.6 8.2-16-4.1-21.1-14.3-4v-8.8l-7-6.4v-25l19-31z" />
</svg>
