<svg viewBox="0 0 200 200">
  <path d="M40,132.8C-0.2,120,27.8,73.5,57.3,89.3c14,21.8,28.3,33.9,39.4,19.9c6.1-2.1,4.7,4.4,4.7,4.4s11.3,15.4,28.4,13.4
	c10.1,0.7,10.1,7.6,10.1,7.6s3.2,7.3-39.1,18.5c-8.6,4.4-14,15.1-34.8,26.5c-14.3,1.7-17.6-2.9-15.8-17.1
	c38.1,6.9,35.2-15.3,67.1-28.7c-14-0.4-21.9,8.4-37-6.2C71.4,109.9,43.7,105.5,40,132.8z" />
  <path d="M89.8,75.5c-2.3,0-4.2-3.9-6.2-10.2c-1,4.1-0.9,9-0.9,9.1c0,0.6-0.5,1.1-1,1.1c-0.6,0-1.1-0.5-1.1-1.1
	c0-0.3-0.2-8.3,2.1-13.1c0.2-0.4,0.6-0.6,1.1-0.6c0.4,0,0.8,0.3,0.9,0.8l0.1,0.4c2.1,6.8,3.4,9.6,4.2,10.7c0-3.1,0.2-6.9,2.3-11.3
	c0.3-0.5,0.9-0.8,1.4-0.5c0.5,0.3,0.8,0.9,0.5,1.5c-2.1,4.3-2.1,8.1-2,11.2l0,0.9c0,0.5-0.3,0.9-0.8,1.1
	C90.2,75.4,90,75.5,89.8,75.5z" />
  <path d="M119.2,31.5C67.5-0.4,62.7,41.5,66,67c2.8-0.3,6.6-0.5,10.7-0.8c0.7-6.7,5.5-11.9,11.4-11.9c5.4,0,10,4.5,11.2,10.5
	c0,0,0,0,0,0c38.1-4.4,66.1,18.8,66.1,18.8s1.7,9.3-4.2,13.2c-5.8-2.9-8.2-3.2-16.3-5.6c0,0.2-0.1,0.6,0,1.1
	c17.6,4.1,12.5,28.9-1.8,45.8c0,0,25-17.9,24.1-39.2c6.3-10.4,10.2-16.4,10.2-16.4C190.9,57.9,150.1,74.1,119.2,31.5z" />
  <path d="M90.6,83.5c0-0.1-19.1-7.9-34.5-3.8c0.7,3.8,7.2,5.8,7.2,5.8c16.2-3.5,23.9,5.4,35.2,9.1c5.6,2.9,15,3.3,30.5-4.8
	c1.7-1.4,1.6-2.3,1.7-2.5c-3.5-0.9-5.8-1.4-6.1-1.5C107.3,83.3,94.7,84.6,90.6,83.5z" />
  <path d="M118.8,116.7c-3.9,0-7-2.8-7-6.3c0-3.5,3.1-6.3,7-6.3c2.8,0,5.3,1.5,6.4,3.7c-1-5-4.8-8.8-9.3-8.8c-5.3,0-9.5,5.1-9.5,11.4
	c0,6.3,4.3,11.4,9.5,11.4c4.5,0,8.3-3.8,9.3-8.8C124,115.2,121.6,116.7,118.8,116.7z" />
  <path d="M83.3,109.4c0-4.3,3.4-7.7,7.6-7.7c1.4,0,2.8,0.4,3.9,1.1c-1.6-3.3-4.5-5.4-8-5.4c-5.2,0-8.5,4-8.7,10.1
	c1.8,1.4,3.6,2.6,5.3,3.3C83.4,110.4,83.3,109.9,83.3,109.4z" />
</svg>
