<svg viewBox="0 0 200 200">
  <path
    d="M116.6 69.4c-9.4-9.4-24.8-9.4-34.3 0s-9.4 24.8 0 34.3 24.8 9.4 34.3 0 9.4-24.8 0-34.3zm-7.9 26.3c-5.1 5.1-13.3 5.1-18.4 0-5.1-5.1-5.1-13.3 0-18.4 5.1-5.1 13.3-5.1 18.4 0 5 5.2 5 13.4 0 18.4zM93.3 117.4h17.3c3.9 0 6.9.3 8.9.9 2.8.8 5.1 2.3 7.1 4.3 2 2.1 3.5 4.6 4.5 7.6s1.5 6.7 1.5 11.1c0 3.9-.5 7.2-1.4 10-1.2 3.4-2.8 6.2-5 8.3-1.6 1.6-3.9 2.8-6.7 3.7-2.1.7-4.9 1-8.4 1H93.3v-46.9zm9.5 7.9v31.1h7.1c2.6 0 4.6-.1 5.7-.4 1.5-.4 2.8-1 3.8-2 1-.9 1.8-2.4 2.5-4.5.6-2.1 1-5 1-8.6s-.3-6.4-1-8.4c-.6-1.9-1.5-3.5-2.7-4.5s-2.6-1.8-4.4-2.2c-1.3-.3-3.9-.4-7.8-.4h-4.2zM140.7 117.4h18.8c3.7 0 6.5.2 8.3.5 1.8.3 3.5 1 4.9 1.9 1.4 1 2.6 2.3 3.6 3.9s1.4 3.5 1.4 5.5c0 2.2-.6 4.2-1.8 6.1-1.2 1.8-2.8 3.2-4.8 4.1 2.9.8 5.1 2.3 6.6 4.3s2.3 4.4 2.3 7.1c0 2.1-.5 4.2-1.5 6.2s-2.3 3.6-4.1 4.8c-1.7 1.2-3.8 1.9-6.4 2.2-1.6.2-5.4.3-11.4.3h-16v-46.9zm9.5 7.8v10.9h6.2c3.7 0 6-.1 6.9-.2 1.6-.2 2.9-.8 3.8-1.7.9-.9 1.4-2.2 1.4-3.7s-.4-2.6-1.2-3.5c-.8-.9-2-1.5-3.6-1.6-.9-.1-3.6-.2-8.1-.2h-5.4zm0 18.7v12.5h8.8c3.4 0 5.6-.1 6.5-.3 1.4-.3 2.6-.9 3.4-1.9.9-1 1.3-2.3 1.3-4 0-1.4-.3-2.6-1-3.6s-1.7-1.7-3-2.1c-1.3-.4-4.1-.7-8.4-.7h-7.6z" />
  <g>
    <path
      d="M147.3 123.2c1.3-.8 2.7-1.6 4-2.4h-4v2.4zM135.2 111.1c-2.4 1.3-4.9 2.5-7.4 3.5 1 .7 2 1.6 2.9 2.5 1.8 1.9 3.3 4.1 4.5 6.6v-12.6z" />
    <path
      d="M55.1 67.7c24.4-19.4 64.1-19.4 88.6 0 6.9 5.5 11.9 12 14.9 18.9-3 6.9-7.9 13.3-14.8 18.8-2.5 2-5.3 3.8-8.1 5.4h23.5c1.6 0 3.1 0 4.4.1 7.4-7.3 12.5-15.7 15.3-24.4-3.2-9.8-9.3-19.2-18.4-27.2-1-.9-2-1.7-3-2.6-32-25.5-84.1-25.5-116.2 0-1.1.8-2.1 1.7-3.1 2.6-9 8-15.1 17.3-18.3 27.2 3.2 9.9 9.3 19.2 18.4 27.2 1 .9 2 1.7 3 2.6 12.9 10.3 29.2 16.4 46 18.4V119c-11.8-1.8-23-6.4-32.2-13.6-6.9-5.5-11.9-12-14.9-18.9 3.1-6.8 8.1-13.3 14.9-18.8z" />
  </g>
</svg>
