<svg viewBox="0 0 200 200">
  <title>Pirate Rumble Special</title>
  <path
    d="M43.7 81.9c-2.2-6.8-9.5-10.5-16.3-8.3-6.8 2.2-10.5 9.5-8.3 16.3L41 157c2.2 6.8 9.5 10.5 16.3 8.3s10.5-9.5 8.3-16.3L43.7 81.9zM142.6 50.3c-29.8 16.9-67.3 8.6-98.5 20.6 3.5 1.3 6.4 4.1 7.7 8L73.6 146c.4 1.3.6 2.6.6 3.9 34.4-11.6 74.1-6 104.3-30.7-12.1-22.5-24.1-45.5-35.9-68.9zm9.7 72c-2.1.5-4.5-1-5.5-2.9-1.9-3.8-4.1-7.4-6.3-11.1-.2-.4-1.1-.5-1.7-.5-2.2.1-4.5.7-6.7.6-3.2-.2-5.2-2.7-6.5-5.2-1-1.8-2.3-2.1-3.9-2.4-12-2.4-24-4.7-36-6.9-3.3-.6-6.3-1.4-9.3-3-2-1-8.7-1.8-9.9-3-.2-.6-.4-1.3-.4-1.9-.5-7.2.3-7.3 7.2-6.4 4 .6 46.2 7.1 49.8 7.6.4-1.1.6-2.4 1.2-3.2 1.2-1.7 3.7-1.6 5.9.2 3.5 2.8 27.9 23.7 28.5 24.1 3.4 2.2 4 4 1.7 7.2-1.9 2.9-4.3 5.8-8.1 6.8z" />
</svg>
