<svg viewBox="0 0 200 200">
  <path
    d="M43.7 81.9c-2.2-6.8-9.5-10.5-16.3-8.3-6.8 2.2-10.5 9.5-8.3 16.3L41 157c2.2 6.8 9.5 10.5 16.3 8.3s10.5-9.5 8.3-16.3L43.7 81.9zM142.6 50.3c-29.8 16.9-67.3 8.6-98.5 20.6 3.5 1.3 6.4 4.1 7.7 8L73.6 146c.4 1.3.6 2.6.6 3.9 34.4-11.6 74.1-6 104.3-30.7-12.1-22.5-24.1-45.5-35.9-68.9zm-2.2 19.5c-.2 1.1-.7 2.1-1.1 3.1-.9 2.1-1.7 4.4-2.9 6.4-.8 1.4-2 2.6-3.1 3.8-2.7 3-5.5 5.9-8.3 8.8-2.1 2.2-4.2 4.3-6.2 6.4-2.8 2.9-5.5 5.8-8.4 8.6-1.2 1.1-1 2 0 3s1.8 2.1 3.5 2.4c1.9.3 2.1 2.1.3 3.7-1.1 1-2.4 1.8-3.8 2.4-.7.3-1.9.1-2.7-.4-1.8-1-3.4-2.2-5.5-3.6-1.5.8-4.3 4-6.2 5.9-2.2 2.9-4.5 5.6-6.5 8.5-1.8 2.6-3.1 2-4.8.9-.6-.4-1.2-.8-1.7-1.3-2.4-2.1-2.1-4.5.7-6 1.2-.6 2.2-1.6 3.2-2.5 1.6-1.6 3.1-3.3 4.5-5.1.5-.6 3.3-4.8 4.5-6.2-1.1-1.2-2.3-2.6-3.6-4-.9-1-1.3-1.9-.4-3.1.7-1.1 1.2-2.3 1.6-3.5.5-1.4 1.6-2 2.9-1.8.6.1.9 1.3 1.5 2 1.3 1.4 2.6 2.7 4.1 4.3 2.1-2.3 3.8-4.2 5.6-6.2L119 83.4c2-2.3 4.3-4.3 6-6.7 2.1-3.2 5.6-4.2 8.5-6.1 1.4-.9 2.8-1.8 4.3-2.5.6-.3 1.6-.2 2.2.1.1.1.5 1.1.4 1.6z" />
</svg>
