<svg viewBox="0 0 200 200">
  <path d="M151.3,90.3l-21,21.8c-2.7,2.8-0.8,7.6,3.2,7.6h42.1c3.9,0,5.9-4.7,3.2-7.6l-21-21.8C155.8,88.5,153,88.5,151.3,90.3z"/>
  <path d="M157.7,161.9l21-21.8c2.7-2.8,0.8-7.6-3.2-7.6h-42c-3.9,0-5.9,4.7-3.2,7.6l21,21.8C153.1,163.7,155.9,163.7,157.7,161.9z"/>
  <path d="M53.8,112.5l6,12.7c0.6,1.3,1.8,2.2,3.2,2.5l13.4,2c3.4,0.6,4.9,5,2.4,7.6L69,147c-1,1-1.4,2.5-1.2,4l2.3,13.9
	c0.6,3.6-3.1,6.4-6.2,4.6l-12-6.5c-1.3-0.7-2.7-0.7-4,0l-12,6.5c-3.1,1.7-6.8-1-6.2-4.6l2.3-13.9c0.3-1.4-0.2-2.9-1.2-4l-9.7-9.8
	c-2.5-2.6-1.1-7,2.4-7.6l13.4-2c1.4-0.2,2.5-1.1,3.2-2.5l6-12.7C47.7,109.2,52.3,109.2,53.8,112.5z"/>
  <path d="M175.2,22.6c-0.8-1.5-2.5-2.6-4.6-2.6H25c-1.9,0-3.7,1-4.6,2.6c-0.8,1.5-0.5,3.5,0.8,4.7L80,89.1v32.8l11.5,1.7
	c5.4,0.9,7.7,7.9,3.7,11.9L80,150.9v11.2c0,9.9,8,17.9,17.8,17.9c9.8,0,17.8-8.1,17.8-17.9v-73l58.8-61.7
	C175.8,26,176,24.2,175.2,22.6z"/>
</svg>
