<svg viewBox="0 0 200 200">
  <path
    d="M78.26 20.53c-8.263.042-19.432 2.857-22.726 9.877.148 4.023.359 8.03 2.508 11.49-2.588 4.427-.274 10.035 4.393 10.771 1.956 4.244 8.508 18.163 12.474 26.358-19.955 11.142 1.956 71.873 13.52 95.872 13.492 11.557 48.492-.465 56.035-18.096-1.115-19.007-21.848-88.848-45.302-85.245-5.152-7.9-7.631-19.448-8.851-28.728 4.224-4.246 3.47-11.075-1.324-11.85-.464-4.596-1.615-7.97-3.832-9.623-1.71-.548-4.141-.84-6.896-.826zm16.164 77.383l10.174 11.778 18.68-1.867-9.759 13.931 8.642 17.668-15.89-4.31L94.98 146.03l-.696-16.516-15.752-8.906 14.915-7.325z" />
</svg>
