<svg viewBox="0 0 200 200">
  <path
    d="M118.819 40.003c-2.054.035-4.443.37-7.37 1.134-7.562 4.302-19.945 19.989-5.885 31.484l-5.299 6.958-18.834-4.009c1.336-1.69.095-3.382-2.002-5.072l13.303-.825c7.339-8.422 4.146-12.228 1.765-16.39h-8.004c-1.063-3.71-3.702-6.46-6.004-.237l-7.064.826c-7.095-.04-13.353 11.006-2.354 16.509l4.002-.117c-3.2 3.224-8.996 5.96-2.707 10.965L68.6 95.027c.994 3.004 2.784 2.289 4.708.943l3.296-14.15 24.015 8.018c-7.267 23.025-2.288 44.389 19.306 67.1 18.608-13.169 35.69-24.805 38.26-37.973 1.821-1.716 3.793-2.462 6.239-.117 1.04 4.055.842 7.697 4.473 12.618 14.283 6.128 10.85-8.389 10.477-19.34-3.562-21.347-11.86-10.932-19.305-6.25-10.574.359-20.042-1.09-22.25-14.387 11.135-16.186 8.214-15.572 19.777-17.335 16.201-5.535 4.881-21.154-4.355-14.621-4.704 4.58-6.89 10.306-7.063-1.534-2.976-1.595-6.16-.702-3.885 12.618l-9.654 10.14-5.885-8.254c4.679-3.73 8.141-8.068 9.064-13.678.62-9.191-1.838-12.468-8.594-17.1-2.494-1.006-4.983-1.78-8.405-1.722zm-8.06 18.94c1.549.016 3.07.2 4.575.47 0 0-8.476 10.496-10.712.473 2.111-.706 4.147-.963 6.138-.943z" />
  <path
    d="M38.58 89.13l.942-12.027c-10.68-1.06-6.634-12.419-.471-15.095 7.31-1.93 9.727-1.473 12.95 1.887 2.73 5.45-2.03 11.128-.825 26.061 20.176 5.4 38.17 33.754 57.213 51.061-2.755 2.156 25.893 4.203-3.061 12.028-5.71 2.252-50.15 24.891-80.992-30.07-6.462-20.9-3.628-26.935-.471-30.424 3.626-3.135 9.528-4.975 14.715-3.42z" />
</svg>
