<svg viewBox="0 0 200 200">
  <path
    d="M94.802 20.004c-2.859.048-6.186.507-10.262 1.551-10.53 5.887-27.775 27.35-8.195 43.078l-7.38 9.521L42.74 68.67c1.86-2.313.131-4.627-2.788-6.94L58.476 60.6c10.22-11.523 5.773-16.731 2.457-22.426H49.787c-1.48-5.076-5.155-8.838-8.36-.323L31.59 38.98c-9.88-.054-18.596 15.06-3.278 22.589l5.573-.16c-4.455 4.411-12.528 8.153-3.77 15.003l-5.245 18.88c1.385 4.109 3.877 3.13 6.557 1.289l4.59-19.36 33.442 10.97C59.34 119.695 66.273 148.926 96.342 180c25.913-18.017 49.701-33.938 53.278-51.955 2.538-2.348 5.283-3.37 8.69-.16 1.447 5.548 1.172 10.531 6.229 17.264 19.89 8.384 15.11-11.479 14.59-26.462-4.96-29.209-16.517-14.958-26.884-8.552-14.725.491-27.909-1.49-30.983-19.686 15.506-22.145 11.438-21.305 27.54-23.718 22.56-7.573 6.797-28.943-6.065-20.005-6.55 6.266-9.594 14.1-9.836-2.098-4.144-2.184-8.579-.962-5.41 17.264l-13.443 13.874-8.195-11.293c6.515-5.103 11.336-11.039 12.621-18.716.864-12.575-2.559-17.06-11.967-23.396-3.472-1.377-6.939-2.436-11.705-2.357zM83.58 45.92c2.156.022 4.273.273 6.37.644 0 0-11.803 14.36-14.918.646 2.94-.967 5.776-1.318 8.548-1.29z" />
</svg>
