<svg viewBox="0 0 200 200">
  <path
    d="M99.966 49.898C64.862 49.978 34.345 70.171 20 99.355c14.389 29.07 44.844 49.163 79.862 49.242 35.25.08 65.868-20.147 80.138-49.463-14.316-29.195-44.873-49.315-80.034-49.236zm0 17.251c25.454-.057 47.638 12.723 60.28 32.02-12.623 19.385-34.86 32.235-60.384 32.177-25.333-.057-47.43-12.818-60.1-32.02 12.654-19.29 34.801-32.12 60.204-32.177z" />
  <path
    d="M117.048 82.358c-9.259-9.259-24.427-9.259-33.785 0-9.357 9.26-9.259 24.428 0 33.785 9.259 9.357 24.428 9.259 33.785 0 9.357-9.259 9.259-24.427 0-33.785zm-7.781 25.905a12.782 12.782 0 01-18.124 0 12.782 12.782 0 010-18.123 12.782 12.782 0 0118.124 0c4.925 5.121 4.925 13.198 0 18.123z" />
</svg>
