<svg xmlns="http://www.w3.org/2000/svg" viewBox="0 0 200 200">
  <path d="M55.1,58.9C57.1,4.9-11.7,73.7,38,74c-6.5,10-4.6,17.5-0.9,24.9c-40.2,2.3,13.8,64.3,16.6,17c-0.7,22,35.4,23.9,31.8-1.4
	c2.8,44.2,58.9-8.7,20.7-14.5c0,0,6.4-8.5,0.5-26c40.6-11.6-18.9-60-20.2-14.3C72.5,50.1,55.1,58.9,55.1,58.9z" />
  <path d="M150.6,65.5c21.5-16.3,26.1-49.7,9.9-43.4c0,0-17.3,11-38.5,25.6c2,2.9,3.5,6.1,4.1,9.3c0.6,3.5,1.3,14.3-12.6,20.5
	c2,8.2,1.4,14.5,0.3,18.8c11.1,4.2,11.4,13.2,11.2,16.2c-1,12.3-14.9,25.1-27.2,25.1c0,0-0.1,0-0.1,0c-2.8,0-7.7-0.8-11.7-5.2
	c-0.9,0.9-1.8,1.7-2.9,2.5c-6.6,4.6-16.1,4.9-23.7,0.8c-1.7-0.9-3.2-2-4.5-3.2c-2.7,4.2-6.1,5.9-9,6.5c8,36.3,43.5,76.7,114.6-18.3
	c8.9-15.2-5.4-12.5-10.7-10.1c23.4-12.6,28-32.6,4.2-23.2C186.8,74,187.1,45.5,150.6,65.5z" />
</svg>
