<svg viewBox="0 0 200 200" xmlns="http://www.w3.org/2000/svg">
  <path fill="#E96D63"
    d="M147.5 16.2C117.2 22 86.3 27.6 55 32.8c9.6 44.5-19.3 88.8-10.2 133.1 12.722 2.049 25.54 4.185 38.384 6.34.313-5.574 2.533-11.051 6.707-15.224l12.515-12.516-11.515-11.516c-4.146-4.145-6.364-9.576-6.702-15.111-7.564-.366-15.129-.732-22.689-1.072 4.2-23 11-46 9.9-69 21.5-2.6 42.8-5.401 64.1-8.201 2.977 22.164-1.403 44.33-5.105 66.55l5.18 5.18 10.515-10.516c1.31-1.31 2.76-2.406 4.289-3.335 4.262-27.14 8.075-54.235-2.879-81.28zm-11.926 161.472l-3.017 3.017c2.437.427 4.881.86 7.324 1.29l-4.307-4.307z" />
  <path
    d="M114.5 51.9c-1.5 6.4-6.3 12.6-12.3 18.6-4-5.4-9-10.6-16.3-15.8-1.2 3.5-3.5 6.9-6.4 10.2 4.7 5.2 8 10.5 11.5 15.9-6.8 5.9-13.7 11.5-18.9 17 3 3.3 6.6 6.6 11.2 9.9 2.6-5.5 8-11.1 14.3-17a84.438 84.438 0 002.636 3.44 23.656 23.656 0 017.174-1.134 23.64 23.64 0 0115.033 5.369c-5.753-6.2-9.513-12.134-13.343-17.975 6.8-6 13.4-12.3 17.8-18.6-3.5-3.4-7.5-6.7-12.4-9.9zM99.375 108.3c-4.5 4.5-4.5 11.7 0 16.2l20 20-21 21c-4.5 4.5-4.5 11.7 0 16.2s11.7 4.5 16.2 0l21-21 20 20c4.5 4.5 11.7 4.5 16.2 0s4.5-11.7 0-16.2l-20-20 19-19c4.5-4.5 4.5-11.7 0-16.2s-11.7-4.5-16.2 0l-19 19-20-20c-4.5-4.4-11.8-4.4-16.2 0z" />
</svg>
