<svg viewBox="0 0 200 200" xmlns="http://www.w3.org/2000/svg">
  <path fill="#E96D63"
    d="M147.5 16.2C117.2 22 86.3 27.6 55 32.8c9.6 44.5-19.3 88.8-10.2 133.1 19.732 3.178 39.645 6.518 59.682 9.948l-24.017-23.729-.026-.025c-8.469-8.47-8.469-22.602 0-31.07a21.67 21.67 0 014.012-3.14c-7.651-.367-15.304-.739-22.951-1.083 4.2-23 11-46 9.9-69 21.5-2.6 42.8-5.401 64.1-8.201 3.6 26.8-3.6 53.6-7.3 80.5-6.276-.338-12.53-.65-18.792-.971a21.69 21.69 0 012.201 1.894l13.366 13.254 20.441-33.611a21.476 21.476 0 015.395-6.068c4.063-26.177 7.255-52.31-3.311-78.399zm2.7 161.587l-1.936 3.178-.008.014a21.811 21.811 0 01-1.55 2.2c1.93.34 3.853.675 5.794 1.02a93.67 93.67 0 01-2.3-6.412z" />
  <path
    d="M85.9 54.7c-1.2 3.5-3.5 6.9-6.4 10.2 4.7 5.2 8 10.5 11.5 15.9-6.8 5.9-13.7 11.5-18.9 17 3 3.3 6.6 6.6 11.2 9.9 2.6-5.5 8-11.1 14.3-17 4.4 6.1 10 12.3 19 18.8 1.4-3.4 3.7-6.8 6.6-10.3-6.2-6.5-10.1-12.7-14.1-18.8 6.8-6 13.4-12.3 17.8-18.6-3.5-3.4-7.5-6.7-12.4-9.9-1.5 6.4-6.3 12.6-12.3 18.6-4-5.4-9-10.6-16.3-15.8zM169.525 103.408c-4.8-2.8-11-1.3-13.8 3.4l-28.4 46.7-24.2-24c-3.9-3.9-10.3-3.9-14.2 0-3.9 3.9-3.9 10.2 0 14.1l33.4 33c2 1.9 4.5 2.9 7.1 2.9 3.4 0 6.7-1.7 8.6-4.8l35.1-57.6c2.7-4.8 1.2-10.9-3.6-13.7z" />
</svg>
