<svg xmlns="http://www.w3.org/2000/svg" viewBox="0 0 200 200">
  <title>Support</title>
  <path d="M158,54.6C147.8,42.7,130.7,39,112.3,43l14.1,27.7c1.8,3.4,2.1,7.4,0.9,11.1s-3.7,6.7-7.2,8.4c-2.1,1.1-4.3,1.6-6.6,1.6
	c-2.4,0-4.9-1.1-6.9-2.3c-1.2-0.7-2.6,0.3-2.4,1.6c0.3,2.2,0.1,4.4-0.6,6.6c-1.2,3.7-3.7,6.7-7.2,8.4c-2.1,1.1-4.3,1.6-6.6,1.6
	c-2.7,0-6-2-8.5-4c-1.1-0.9-2.8,0-2.6,1.5c0.2,2,0,4-0.7,5.9c-1.2,3.7-3.7,6.7-7.2,8.4c-2.1,1.1-4.3,1.6-6.5,1.6
	c-1.5,0-3-0.2-4.5-0.7c-3.7-1.2-6.7-3.8-8.4-7.2l-4.2-8.2l-22.1,20c-6.2,5.4-7,14.9-1.6,21.2L47.5,174c5.4,6.3,14.9,7,21.1,1.6
	l17.3-14.9c16.2-1.1,34.4-8.7,50.1-22.2C165.9,112.7,175.7,75.2,158,54.6z" />
  <path d="M176.4,131.3L164.1,117c-5.2,9.6-12.6,18.8-22,26.9c-8.8,7.6-18.4,13.3-28,17.1l11.8,13.8c5.4,6.3,14.9,7,21.1,1.6
	l27.8-23.9C181.1,147.1,181.8,137.6,176.4,131.3z" />
  <path d="M68.7,41.3c-1.5,0-2.9,0.3-4.3,1c-4.7,2.4-6.5,8.1-4.1,12.8l21.8,42.8c1.1,2.2,3.1,3.9,5.5,4.7c2.4,0.8,5,0.6,7.2-0.6
	c2.2-1.1,3.9-3.1,4.7-5.5s0.6-5-0.6-7.2L77.2,46.5c-1.1-2.3-3.1-3.9-5.5-4.7C70.7,41.5,69.7,41.3,68.7,41.3z" />
  <path d="M49.7,68.3c-1.5,0-2.9,0.3-4.3,1c-4.7,2.4-6.5,8.1-4.1,12.8l14.6,28.7c1.1,2.2,3.1,3.9,5.5,4.7c2.4,0.8,5,0.6,7.2-0.6
	c2.2-1.1,3.9-3.1,4.7-5.5s0.6-5-0.6-7.2L58.1,73.5c-1.1-2.3-3.1-3.9-5.5-4.7C51.6,68.5,50.6,68.3,49.7,68.3z" />
  <path d="M91.6,25c-1.4,0-2.9,0.3-4.3,1c-2.2,1.1-3.9,3.1-4.7,5.5c-0.8,2.4-0.6,5,0.6,7.2L105,81.6c2.4,4.7,8.1,6.5,12.8,4.1
	c2.2-1.1,3.9-3.1,4.7-5.5s0.6-5-0.6-7.2l-21.8-42.8C98.4,26.9,95.1,25,91.6,25z" />
  <path d="M130.7,36.8l0.7-8.5c0.2-2.5-0.6-5-2.2-6.9c-1.6-1.9-3.9-3.1-6.5-3.3c-0.3,0-0.5,0-0.8,0c-2.2,0-4.4,0.8-6.1,2.3
	c-1.9,1.7-3.1,3.9-3.3,6.5l-0.9,10.9C118.2,36.4,124.7,36.1,130.7,36.8z" />
</svg>
