<svg xmlns="http://www.w3.org/2000/svg" viewBox="0 0 200 200">
  <path d="M158,54.6C147.8,42.7,130.7,39,112.3,43l14.1,27.7c1.8,3.4,2.1,7.4,0.9,11.1c-1.2,3.7-3.7,6.7-7.2,8.4
	c-2.1,1.1-4.3,1.6-6.6,1.6c-5.3,0-10.4-2.9-12.9-7.9L85.3,54c-1.2,0.7-2.3,1.4-3.5,2.2l17,33.4c1.8,3.4,2.1,7.4,0.9,11.1
	c-1.2,3.7-3.7,6.7-7.2,8.4c-2.1,1.1-4.3,1.6-6.6,1.6c-5.3,0-10.4-2.9-12.9-7.9L59.6,76.4c-1,1.3-2,2.6-3,3.9L70.2,107
	c1.8,3.4,2.1,7.4,0.9,11.1c-1.2,3.7-3.7,6.7-7.2,8.4c-2.1,1.1-4.3,1.6-6.5,1.6c-1.5,0-3-0.2-4.5-0.7c-3.7-1.2-6.7-3.8-8.4-7.2
	l-4.2-8.2l-15.1,13c-6.2,5.4-7,14.9-1.6,21.2L47.5,174c5.4,6.3,14.9,7,21.1,1.6l17.3-14.9c16.2-1.1,34.4-8.7,50.1-22.2
	C165.9,112.7,175.7,75.2,158,54.6z"/>
  <path d="M176.4,131.3L164.1,117c-5.2,9.6-12.6,18.8-22,26.9c-8.8,7.6-18.4,13.3-28,17.1l11.8,13.8c5.4,6.3,14.9,7,21.1,1.6
	l27.8-23.9C181.1,147.1,181.8,137.6,176.4,131.3z"/>
  <path d="M64.1,43.9c-1.5,0-2.9,0.3-4.3,1c-4.7,2.4-6.5,8.1-4.1,12.8l21.8,42.8c1.1,2.2,3.1,3.9,5.5,4.7
	c2.4,0.8,5,0.6,7.2-0.6c2.2-1.1,3.9-3.1,4.7-5.5s0.6-5-0.6-7.2L72.6,49.1c-1.1-2.3-3.1-3.9-5.5-4.7C66.1,44.1,65.1,43.9,64.1,43.9z" />
  <path d="M42.7,75.3c-1.5,0-2.9,0.3-4.3,1c-4.7,2.4-6.5,8.1-4.1,12.8l14.6,28.7c1.1,2.2,3.1,3.9,5.5,4.7
	c2.4,0.8,5,0.6,7.2-0.6c2.2-1.1,3.9-3.1,4.7-5.5c0.8-2.4,0.6-5-0.6-7.2L51.1,80.5c-1.1-2.3-3.1-3.9-5.5-4.7
	C44.6,75.5,43.6,75.3,42.7,75.3z"/>
  <path d="M91.6,25c-1.4,0-2.9,0.3-4.3,1c-2.2,1.1-3.9,3.1-4.7,5.5c-0.8,2.4-0.6,5,0.6,7.2L105,81.6
	c2.4,4.7,8.1,6.5,12.8,4.1c2.2-1.1,3.9-3.1,4.7-5.5s0.6-5-0.6-7.2l-21.8-42.8C98.4,26.9,95.1,25,91.6,25z"/>
  <path d="M132.7,38.8l0.7-8.5c0.2-2.5-0.6-5-2.2-6.9c-1.6-1.9-3.9-3.1-6.5-3.3c-0.3,0-0.5,0-0.8,0c-2.2,0-4.4,0.8-6.1,2.3
	c-1.9,1.7-3.1,3.9-3.3,6.5l-0.9,10.9C120.2,38.4,126.7,38.1,132.7,38.8z"/>
</svg>
