<svg viewBox="0 0 200 200">
  <path
    d="M101.234 20.005c-17.591.255-35.932 10.375-40.61 28.33C46.907 49.539 20 55.86 20 55.86l28.124 122.89L65.003 180l9.374-6.893-5.624-20.064 61.248.625L125 171.226l11.254 8.149h15.623S176.875 75.295 180 55.859c-8.064-2.889-31.298-8-43.123-8.78-3.254-18.849-19.119-27.313-35.643-27.074zm-2.095 15.79l4.73 9.266 10.295 1.337-7.32 7.38 1.905 10.23-9.252-4.705-9.114 4.986 1.599-10.285-7.54-7.155 10.247-1.65zm-.22 63.18c14.204.065 29.08 1.328 41.085 3.592.29 4.318-.644 11.684-3.75 18.809-21.392-13.083-54.7-12.435-72.503-1.88-1.668-8.23-1.9-12.698-1.875-16.929 9.31-2.522 22.84-3.657 37.044-3.592z" />
</svg>
