<svg viewBox="0 0 200 200">
  <path
    d="M155.672 26.45l-102.4 4.7c11.7.1 25.198 10.4 24.798 29.3l101.201-6c0-22.7-15.4-28.4-23.6-28zM37.928 32.61c-9.435.29-16.227 5.065-17.457 13.239l49 13.8c-.2-15.5-7.8-25-27.5-26.9a33.572 33.572 0 00-2.121-.137 30.657 30.657 0 00-1.922-.002zM19.27 54.85v70.9l39.34 16.621v-10.309l-1.976-10.681c-2.028-10.95 2.929-21.739 11.636-27.72V68.75l-49-13.9zm160 9l-100.8 5.601v19.93c.066-.013.129-.035.195-.047h.002l76.805-14.22a27.498 27.498 0 016.14-.438h.002c6.756.279 12.958 3.064 17.656 7.472V63.85zM161.1 87.166a15 15 0 00-3.35.238l-76.807 14.221a15 15 0 00-12.017 17.48l2.365 12.782h-.18v34.83c0 8.284 6.716 15 15 15h78.112c8.284 0 15-6.716 15-15v-34.83H78.873l98.975-18.326-2.618-14.14a15 15 0 00-14.13-12.255zM110 135l17.5 10 17.5 10-17.5 10-17.5 10v-40z" />
</svg>
