<svg viewBox="0 0 200 200">
  <path d="M114.7,90.5c11.6,2.3,21.2,5.4,28.6,9.4c7.4,3.9,12.6,8.7,14.5,14.3c2,6-1,11.7-9.6,17.2c-8.7,5.5-22.3,8.7-37.8,9.5
		c-2.9,0.1-7.6,0.3-13.8,0.3c-4,0.1-6.2,0.1-6.6,0.1c-21.5,1-36.1,1.9-43.9,2.6c-2.5,0.1-3.4-0.3-2.7-1.3c0.4-0.5,1-0.9,1.8-1.1
		c0.9-0.2,3.8-0.8,8.8-1.6c3-0.5,5.7-1.4,8-2.8c2.3-1.4,4.8-4.2,6.8-8.3c2-4.1,3.3-10.2,2.6-18.3c-0.7-8-2-14.4-2.6-19.2
		c-0.7-4.9-1.1-8.6-1.4-11.2c-1-8.1-0.8-14.5-0.3-19.4c0.5-4.9,1.3-8,0.8-9.4c-0.4-1.4-2.1-2.4-5.2-3.1c-1.3-0.3-1.6-0.8-1-1.6
		c0.6-0.9,1.7-1.3,3.1-1.2c4.3,0.3,8.6,0.6,12.9,0.8c4.3,0.2,8.3,0.3,12.2,0.3c8.6,0,14.1,0,16.6,0.1c8.8,0.4,14.6,2.7,18.9,6.6
		c4.3,4,6.7,9.1,8.1,15.5c1.1,5,0.8,9.3-1.7,12.8C129,85.1,123.5,88.1,114.7,90.5z M85.7,93.8c-0.5,1.2-0.4,3.3,0.3,6.3
		c1.5,7.5,2.6,15,1.8,22.5c-0.7,7.9-2.7,12.3-2.5,13.2c0.2,0.9,1.8,1.6,4.9,2c3.1,0.5,8.3,0.5,15.7,0.2c6.6-0.3,12.2-1.2,16.7-2.6
		c4.5-1.4,9-4,12.7-7.7c3.6-3.7,4.9-8,3.7-13c-1.9-7.4-7.4-12.8-14.4-16.3c-7.1-3.5-16-5.2-26.9-5.2C94,93.3,90,93.5,85.7,93.8z
		 M85.5,50.8c-5.4,10.5-4.9,19-4.2,25.6c0.5,3.6,1.2,7.1,2.1,10.7c0.3,1.4,0.8,2.4,1.4,2.7c0.6,0.4,2,0.6,4.2,0.6
		c11,0,19.4-1.6,24.8-4.9c5.5-3.2,6.4-8.6,5.1-16.1c-1.1-6.4-2.7-11.3-6.1-14.7c-3.4-3.4-7.6-5.2-13.8-5.5
		C95.3,49.1,90.8,49.6,85.5,50.8z"/>
  <path d="M113.7,42.3c7.8,0,14.1-5.1,14.1-11.4c0-3.8-2.3-7.2-5.9-9.3c-6.2-3.9-21.9-3.1-29.8,5.5c-12.4,13.3-3.9,40,4.8,70
	c5.7,19.6,11.6,39.8,12,56.6c0,0.2,0,0.3,0,0.5c0.3,3-1.3,6-4.3,8.5c-3.6,2.9-8.3,4-12.3,3c-2.5-0.9-4.2-2.2-4.7-3.8
	c-0.1-0.4-0.2-0.8-0.2-1.1c3.2,0.9,6.7-0.5,8.2-3.4c1.7-3.3,0.3-7.3-3.1-9c-4.5-2.2-9.5-1.9-13.3,0.8c-4.3,3-6.5,8.5-5.7,14.1
	c1,6.9,6.4,12.6,14.2,15.2c0.1,0,0.3,0.1,0.4,0.1c2.3,0.6,4.6,0.9,7,0.9c6.5,0,13.1-2.3,18.3-6.4c6.6-5.2,10-12.4,9.3-19.8
	c-0.5-18.4-6.6-39.4-12.5-59.7C103.8,70.8,97,47.3,102,37.2C104.5,40.2,108.8,42.3,113.7,42.3z"/>
</svg>
