<svg xmlns="http://www.w3.org/2000/svg" viewBox="0 0 200 200">
  <path d="M180,89.5c0-22.9-14.2-41.6-32.3-43.2c-8.4-8.3-18.9-14.5-30.8-17.8C112,23.3,105,20,97.1,20s-14.9,3.3-19.8,8.5
	c-5.5,1.5-10.8,3.7-15.6,6.4C38.6,35,20,54.7,20,78.9c0,9.5,2.9,18.4,7.8,25.6c1.6,8.5,4.8,16.4,9.3,23.4c-1.7,8-1,16,2.7,23.1
	c9.5,18.1,35.5,24.4,59.4,13.4c3.4-1.6,6.6-3.4,9.5-5.4c19.1-3,35.5-13.3,46.1-27.8C169.4,125.9,180,109.3,180,89.5z"/>
  <path d="M155,177.7l-57.5-54.8c-3.3-3.1-3.3-8.2,0-11.3l2.8-2.6c3.3-3.1,8.6-3.1,11.8,0l57.5,54.8c3.3,3.1,3.3,8.2,0,11.3l-2.8,2.6
	C163.6,180.8,158.3,180.8,155,177.7z"/>
</svg>
