<svg xmlns="http://www.w3.org/2000/svg" viewBox="0 0 200 200">
  <path d="M151.3,90.3l-21,21.8c-2.7,2.8-0.8,7.6,3.2,7.6h42.1c3.9,0,5.9-4.7,3.2-7.6l-21-21.8C155.8,88.5,153,88.5,151.3,90.3z"/>
  <path d="M157.7,161.9l21-21.8c2.7-2.8,0.8-7.6-3.2-7.6h-42c-3.9,0-5.9,4.7-3.2,7.6l21,21.8C153.1,163.7,155.9,163.7,157.7,161.9z"/>
  <path d="M175.2,22.6c-0.8-1.5-2.5-2.6-4.6-2.6H25c-1.9,0-3.7,1-4.6,2.6c-0.8,1.5-0.5,3.5,0.8,4.7L80,89.1v73c0,9.9,8,17.9,17.8,17.9s17.8-8.1,17.8-17.9v-73l58.8-61.7C175.8,26,176,24.2,175.2,22.6z"/>
</svg>
