<svg viewBox="0 0 200 200">
  <path
    d="M107.9 86.5c-17.1 0-31.1 13.6-31.1 30.2 0 16.7 13.9 30.2 31.1 30.2 17.1 0 31.1-13.6 31.1-30.2s-13.9-30.2-31.1-30.2z" />
  <path
    d="M142.9 123c3.1 1.6 6.6 2.5 10.1 2.5 12.1 0 22-10 22-22.2C175 91 165.1 81 153 81c-8.1 0-15.4 4.4-19.3 11.5 6.4 6.1 10 14.6 10 23.3.1 2.4-.2 4.8-.8 7.2zM106.3 151.8c4 5.5 11.2 10.4 19.3 13.2 8 2.7 15.2 2.7 19 .1 7.3-5.1 9.7-22.7 2.4-35.4-1.1-.3-2.4-.9-3.6-1.4 2.5 4.3 3.8 9.8 3.5 15.3-.3 6-2.5 11-5.9 13.4-6 4.3-18.7.7-26.3-5.5-2.8.4-5.5.5-8.4.3zM84.7 73.9c-5.1 0-9.3 4.2-9.3 9.4 0 4.4 3.1 8.2 7.3 9.1 3.3-3.3 7.1-6 11.3-8.1 0-.3.1-.7.1-1-.1-5.1-4.3-9.4-9.4-9.4z" />
  <path
    d="M86.5 34C52 34 23.9 62.4 23.9 97.2c0 34.1 26.8 62 60.2 63.2-22.6-8.7-38-30.7-38-56.1 0-33.1 26.6-60.1 59.4-60.1 6.9 0 13.7 1.2 20 3.5-11-8.8-24.7-13.7-39-13.7zM140.3 63.6c-.5 0-1 .1-1.4.2-1.7.5-3.1 1.8-4 3.7-.9 2-1 4.4-.4 6.8.9 3.3 3.2 5.9 5.8 6.7 2.2-1.4 4.6-2.5 7-3.3 1-2.1 1.2-4.6.5-7.1-.6-2.4-2-4.4-3.8-5.7-1.1-.8-2.4-1.3-3.7-1.3z" />
  </svg>
