<svg xmlns="http://www.w3.org/2000/svg" viewBox="0 0 200 200">
  <path
    d="M86 157.9c1.1 7 13 13.1 30.6 15.8 25.5 3.9 56.7-.8 63.1-15.1.8-3.1-.2-5.1-2.4-8.8-2-3.4-4.4-7.7-4.7-13.9v-.4c.5-10.5-1.1-17.7-4.9-21.4-2.4-2.4-5.9-3.4-10.7-3.1l-7.7.4 4.2-6.3c1.9-2.8.8-3.8 0-4.5-7.1-6.3-33.8-6-42 .5-1.9 1.5-2.1 2.8-.9 4.8l3.4 5.7h-6.7c-11.8 0-13.1 6.9-14.4 20.3-.4 4-.8 8.1-1.8 12.1-.9 3.8-1.9 5.4-2.8 6.8-.7 1.3-1.4 2.5-2.3 7.1z" />
  <path
    d="M102.2 104.5c-.3-3.4 1.3-6.6 4.5-9.2 6.6-5.2 20.1-7.4 32.1-6.5 6.8-3.6 13.2-8.8 13-15.7 11.6-2.8 8.4-14.9 8.4-14.9s11-9.3 7.2-15.8c10.6-5.2 7.8-17.3 3.1-17.5 0 0-108.7 72.1-106.6 85-10.4 5.3-31.2 25.4-29.9 35.2l-11.9 6-2.1 15.3 17-5 1.7-11.8c9.5 2.2 25.6-17.2 30.9-31.9 6.4.7 12.5.4 18.2-.7 2.1-6 6.1-11 14.4-12.5z" />
</svg>
