<svg viewBox="0 0 200 200">
  <path
    d="M55.6 130.6c-6.9-11.7-8.8-25.4-5.3-38.4 3.6-13.3 12.3-24.5 24.5-31.4 15.4-8.7 33.9-9.2 49.6-1.7L113.1 77c-1.6 2.6.7 5.9 3.7 5.2l45.4-10.4c1.9-.4 3-2.3 2.6-4.1l-10.4-45.1c-.7-3-4.7-3.7-6.3-1.1l-11.2 17.7c-23.1-11.9-50.8-11.6-73.7 1.2C45.5 50.5 32.8 66.6 27.6 86c-5.2 19.1-2.4 39.1 7.7 56.3 14.1 23.8 39.7 37 66 37 3.2 0 6.3-.2 9.5-.6l-24.2-24.5c-12.6-3.5-23.9-11.6-31-23.6z" />
  <path
    d="M170.1 103.9c-4.8-2.8-11-1.3-13.8 3.4L127.9 154l-24.2-24c-3.9-3.9-10.3-3.9-14.2 0-3.9 3.9-3.9 10.2 0 14.1l33.4 33c2 1.9 4.5 2.9 7.1 2.9 3.4 0 6.7-1.7 8.6-4.8l35.1-57.6c2.7-4.8 1.2-10.9-3.6-13.7z" />
</svg>
