<svg viewBox="0 0 200 200">
  <path
    d="M99.3 99.2c-4.5 4.5-4.5 11.7 0 16.2l20 20-21 21c-4.5 4.5-4.5 11.7 0 16.2s11.7 4.5 16.2 0l21-21 20 20c4.5 4.5 11.7 4.5 16.2 0s4.5-11.7 0-16.2l-20-20 19-19c4.5-4.5 4.5-11.7 0-16.2s-11.7-4.5-16.2 0l-19 19-20-20c-4.5-4.4-11.8-4.4-16.2 0z" />
  <path
    d="M87.6 155.5l.4-.4c-13.3-3.3-25.2-11.6-32.6-24.1-6.9-11.8-8.8-25.5-5.3-38.6C53.8 79 62.5 67.8 74.7 60.9c15.4-8.7 33.9-9.2 49.6-1.7l-11.3 18c-1.6 2.6.7 5.9 3.7 5.2L162.1 72c1.9-.4 3-2.3 2.6-4.1l-10.4-45.3c-.7-3-4.7-3.7-6.3-1.1l-11.2 17.8c-23.1-12-50.8-11.7-73.7 1.2-17.7 10-30.4 26.2-35.6 45.7-5.2 19.2-2.4 39.3 7.7 56.5 13 22 35.8 35.1 59.9 36.9-2.7-.5-5.3-1.8-7.4-3.9-5.6-5.5-5.6-14.6-.1-20.2z" />
</svg>
