<svg viewBox="0 0 200 200">
  <path
    d="M166.4 110.4c-6.2-1.7-12.7 2-14.4 8.2-3.6 13.2-12.3 24.3-24.5 31.2-25.2 14.2-57.5 5.8-72-18.8-6.9-11.8-8.8-25.5-5.3-38.6C53.8 79 62.5 67.8 74.7 60.9c15.4-8.7 33.9-9.2 49.6-1.7l-11.3 18c-1.6 2.6.7 5.9 3.7 5.2L162.1 72c1.9-.4 3-2.3 2.6-4.1l-10.4-45.3c-.7-3-4.7-3.7-6.3-1.1l-11.2 17.8c-23.1-12-50.8-11.7-73.7 1.2-17.7 10-30.4 26.2-35.6 45.7-5.2 19.2-2.4 39.3 7.7 56.5 14.1 23.9 39.7 37.2 66 37.2 12.9 0 25.9-3.2 37.8-9.9 17.6-10 30.2-26.1 35.5-45.3 1.8-6.2-1.9-12.6-8.1-14.3z" />
</svg>
