<svg viewBox="0 0 200 200"
  xmlns="http://www.w3.org/2000/svg">
  <path d="M176.2,81.8l-12.3-2.7c-1.1-3.2-2.4-6.5-4-9.5l6.8-10.6c1.2-1.9,0.9-4.4-0.6-6l-19.2-19.1c-1.6-1.6-4.1-1.8-6-0.6L130.3,40
	c-3.1-1.6-6.3-2.9-9.5-4l-2.7-12.3c-0.5-2.2-2.4-3.7-4.7-3.7H86.4c-2.3,0-4.2,1.6-4.7,3.7L79,36c-3.2,1.1-6.5,2.4-9.5,4l-10.6-6.8
	c-1.9-1.2-4.4-0.9-6,0.6L33.8,53c-1.6,1.6-1.8,4.1-0.6,6L40,69.5c-1.6,3.1-2.9,6.3-4,9.5l-12.3,2.7c-2.2,0.5-3.7,2.4-3.7,4.7v27.1
	c0,2.3,1.6,4.2,3.7,4.7l12.3,2.7c1.1,3.2,2.4,6.5,4,9.5L33.2,141c-1.2,1.9-0.9,4.4,0.6,6L53,166.2c1.6,1.6,4.1,1.8,6,0.6l10.6-6.8
	c3.1,1.6,6.3,2.9,9.5,4l2.7,12.3c0.5,2.2,2.4,3.7,4.7,3.7h27.1c2.3,0,4.2-1.6,4.7-3.7l2.7-12.3c3.2-1.1,6.5-2.4,9.5-4l10.6,6.8
	c1.9,1.2,4.4,0.9,6-0.6l19.2-19.2c1.6-1.6,1.8-4.1,0.6-6l-6.8-10.6c1.6-3.1,2.9-6.3,4-9.5l12.3-2.7c2.2-0.5,3.7-2.4,3.7-4.7V86.4
	C179.9,84.2,178.4,82.2,176.2,81.8z M128.6,100c0,15.8-12.8,28.7-28.7,28.7S71.2,115.8,71.2,100s12.8-28.7,28.7-28.7
	S128.6,84.2,128.6,100z"/>
</svg>
