<svg viewBox="0 0 200 200">
  <path d="M179.9,151.5c-1.2-14.4-13.6-25.1-27.6-23.8c-7.3,0.7-13.6,4.4-17.8,10l-63.6-25.7c0.1-1.6,0.2-3.2,0-4.8
	c-0.1-1.4-0.4-2.8-0.7-4.1l58.3-37.1c5.1,4.6,11.9,7.1,19.1,6.5c14-1.3,24.4-14,23.2-28.4c-1.2-14.4-13.6-25.1-27.6-23.8
	c-14,1.3-24.4,14-23.2,28.4c0.1,1.5,0.4,3,0.8,4.5L62.6,90c-5.1-4.8-12-7.4-19.4-6.7c-14,1.3-24.4,14-23.2,28.4
	c1.2,14.4,13.6,25.1,27.6,23.8c7.2-0.6,13.4-4.3,17.6-9.7l63.8,25.7c-0.1,1.5-0.1,2.9,0,4.4c1.2,14.4,13.6,25.1,27.6,23.8
	S181.1,165.9,179.9,151.5z" />
</svg>
