<svg viewBox="0 0 200 200">
  <path d="M55,32.8c9.6,44.5-19.3,88.8-10.2,133.1c35.4,5.7,71.2,11.8,107.7,18.3c-22.7-56.2,17.6-112.2-5-168
		C117.2,22,86.3,27.6,55,32.8z M128.2,120.1c-22.3-1.2-44.5-2.3-66.7-3.3c4.2-23,11-46,9.9-69c21.5-2.6,42.8-5.4,64.1-8.2
		C139.1,66.4,131.9,93.2,128.2,120.1z"/>
  <path d="M85.9,54.7c-1.2,3.5-3.5,6.9-6.4,10.2c4.7,5.2,8,10.5,11.5,15.9c-6.8,5.9-13.7,11.5-18.9,17c3,3.3,6.6,6.6,11.2,9.9
		c2.6-5.5,8-11.1,14.3-17c4.4,6.1,10,12.3,19,18.8c1.4-3.4,3.7-6.8,6.6-10.3c-6.2-6.5-10.1-12.7-14.1-18.8
		c6.8-6,13.4-12.3,17.8-18.6c-3.5-3.4-7.5-6.7-12.4-9.9c-1.5,6.4-6.3,12.6-12.3,18.6C98.2,65.1,93.2,59.9,85.9,54.7z"/>
</svg>
